<mxfile host="app.diagrams.net" modified="2021-09-11T04:42:29.694Z" agent="5.0 (Windows NT 10.0; Win64; x64) AppleWebKit/537.36 (KHTML, like Gecko) Chrome/93.0.4577.63 Safari/537.36" etag="moMJnmJCUtlnXpaN3JF-" version="15.1.4" type="github">
  <diagram id="3gm-4J6TleDeWHT95lIr" name="Page-1">
    <mxGraphModel dx="1422" dy="762" grid="1" gridSize="10" guides="1" tooltips="1" connect="1" arrows="1" fold="1" page="1" pageScale="1" pageWidth="827" pageHeight="1169" math="0" shadow="0">
      <root>
        <mxCell id="0" />
        <mxCell id="1" parent="0" />
        <mxCell id="cXNpD1Ol4-KBPVm8mCyn-5" value="" style="edgeStyle=orthogonalEdgeStyle;rounded=0;orthogonalLoop=1;jettySize=auto;html=1;" parent="1" source="cXNpD1Ol4-KBPVm8mCyn-1" target="cXNpD1Ol4-KBPVm8mCyn-4" edge="1">
          <mxGeometry relative="1" as="geometry" />
        </mxCell>
        <mxCell id="cXNpD1Ol4-KBPVm8mCyn-9" value="" style="edgeStyle=orthogonalEdgeStyle;rounded=0;orthogonalLoop=1;jettySize=auto;html=1;" parent="1" source="cXNpD1Ol4-KBPVm8mCyn-1" target="cXNpD1Ol4-KBPVm8mCyn-8" edge="1">
          <mxGeometry relative="1" as="geometry" />
        </mxCell>
        <mxCell id="cXNpD1Ol4-KBPVm8mCyn-1" value="ru.job4j.tracker.StartUI" style="ellipse;whiteSpace=wrap;html=1;aspect=fixed;" parent="1" vertex="1">
          <mxGeometry x="300" y="390" width="130" height="130" as="geometry" />
        </mxCell>
        <mxCell id="cXNpD1Ol4-KBPVm8mCyn-4" value="java.util.Scanner" style="ellipse;whiteSpace=wrap;html=1;aspect=fixed;" parent="1" vertex="1">
          <mxGeometry x="510" y="390" width="130" height="130" as="geometry" />
        </mxCell>
        <mxCell id="cXNpD1Ol4-KBPVm8mCyn-11" value="" style="edgeStyle=orthogonalEdgeStyle;rounded=0;orthogonalLoop=1;jettySize=auto;html=1;" parent="1" source="cXNpD1Ol4-KBPVm8mCyn-8" target="cXNpD1Ol4-KBPVm8mCyn-10" edge="1">
          <mxGeometry relative="1" as="geometry" />
        </mxCell>
        <mxCell id="cXNpD1Ol4-KBPVm8mCyn-8" value="ru.job4j.tracker.Tracker" style="ellipse;whiteSpace=wrap;html=1;aspect=fixed;" parent="1" vertex="1">
          <mxGeometry x="300" y="180" width="130" height="130" as="geometry" />
        </mxCell>
        <mxCell id="cXNpD1Ol4-KBPVm8mCyn-10" value="ru.job4j.tracker.Item" style="ellipse;whiteSpace=wrap;html=1;aspect=fixed;" parent="1" vertex="1">
          <mxGeometry x="90" y="390" width="130" height="130" as="geometry" />
        </mxCell>
        <mxCell id="IAu-gE3QlyuQS5z1zOG8-1" value="" style="edgeStyle=orthogonalEdgeStyle;rounded=0;orthogonalLoop=1;jettySize=auto;html=1;entryX=1;entryY=0.5;entryDx=0;entryDy=0;exitX=0;exitY=0.5;exitDx=0;exitDy=0;" edge="1" parent="1" source="cXNpD1Ol4-KBPVm8mCyn-1" target="cXNpD1Ol4-KBPVm8mCyn-10">
          <mxGeometry relative="1" as="geometry">
            <mxPoint x="240" y="400" as="sourcePoint" />
            <mxPoint x="320" y="400" as="targetPoint" />
          </mxGeometry>
        </mxCell>
      </root>
    </mxGraphModel>
  </diagram>
</mxfile>
